<svg id="Laag_1" data-name="Laag 1" xmlns="http://www.w3.org/2000/svg" xmlns:xlink="http://www.w3.org/1999/xlink" viewBox="0 0 510.22 122.3"><defs><style>.cls-1{fill:url(#linear-gradient);}.cls-2{fill:url(#linear-gradient-2);}.cls-3{fill:#9fd4f3;}.cls-4{fill:#004077;}</style><linearGradient id="linear-gradient" x1="182.14" y1="307.54" x2="269.62" y2="221.67" gradientUnits="userSpaceOnUse"><stop offset="0" stop-color="#d90912"/><stop offset="0.03" stop-color="#be0e1c"/><stop offset="0.09" stop-color="#861833"/><stop offset="0.15" stop-color="#582045"/><stop offset="0.2" stop-color="#332753"/><stop offset="0.26" stop-color="#192b5e"/><stop offset="0.3" stop-color="#0a2e64"/><stop offset="0.34" stop-color="#042f66"/><stop offset="0.46" stop-color="#013b72"/><stop offset="0.58" stop-color="#004077"/><stop offset="0.89" stop-color="#0095d7"/></linearGradient><linearGradient id="linear-gradient-2" x1="203.2" y1="287.68" x2="249.73" y2="239.2" gradientUnits="userSpaceOnUse"><stop offset="0.13" stop-color="#042f66"/><stop offset="0.28" stop-color="#02376e"/><stop offset="0.39" stop-color="#004077"/><stop offset="0.51" stop-color="#00548d"/><stop offset="0.77" stop-color="#0086c6"/><stop offset="0.84" stop-color="#0095d7"/></linearGradient></defs><title>Logo-HoefnagelsFS-COLOUR</title><path class="cls-1" d="M277,254.14a51.27,51.27,0,1,1-14.19-26.66l6.84-6.85a60.86,60.86,0,1,0,18,43.14,60,60,0,0,0-.77-9.63Z" transform="translate(-165.84 -202.87)"/><path class="cls-2" d="M217.32,254.14h18.83L217.32,272.9v20H196.51V233.4h20.81Zm18.83-20.74v59.53H257V233.4Z" transform="translate(-165.84 -202.87)"/><polygon class="cls-3" points="91.12 30.53 91.12 30.53 70.31 51.26 91.12 51.26 91.12 30.53"/><path class="cls-4" d="M307.56,324.64v-24.8h15.68v3.83H312.07V310H322v3.83h-9.91v10.81Z" transform="translate(-165.84 -202.87)"/><path class="cls-4" d="M328.64,299.84h4.51v24.8h-4.51Z" transform="translate(-165.84 -202.87)"/><path class="cls-4" d="M347.28,299.59q5.37,0,8.21,2a6.8,6.8,0,0,1,2.85,6q0,5-5,6.83c.46.55,1,1.22,1.54,2s1.16,1.64,1.76,2.56,1.17,1.86,1.71,2.82,1,1.92,1.47,2.85h-5c-.46-.86-.95-1.72-1.47-2.6s-1.06-1.71-1.59-2.54-1.07-1.59-1.6-2.32-1-1.38-1.46-1.95l-.86,0H345v9.38h-4.5V300.2a24.6,24.6,0,0,1,3.5-.49Q345.81,299.59,347.28,299.59Zm.32,3.9c-1,0-1.83,0-2.65.11v8h2a20.55,20.55,0,0,0,2.9-.18,6.19,6.19,0,0,0,2.1-.64,3.18,3.18,0,0,0,1.27-1.25,4.27,4.27,0,0,0,.43-2,4.08,4.08,0,0,0-.43-1.93,3.24,3.24,0,0,0-1.24-1.25,5.73,5.73,0,0,0-1.91-.66A14.09,14.09,0,0,0,347.6,303.49Z" transform="translate(-165.84 -202.87)"/><path class="cls-4" d="M364.64,324.64v-24.8h15.92v3.83H369.14v6.12h10.17v3.76H369.14v7.26h12.28v3.83Z" transform="translate(-165.84 -202.87)"/><path class="cls-4" d="M401.59,321.27a6,6,0,0,0,3.54-.82,2.72,2.72,0,0,0,1.11-2.32,3,3,0,0,0-.38-1.54,4,4,0,0,0-1.07-1.17,9.53,9.53,0,0,0-1.7-1c-.67-.3-1.43-.59-2.29-.88s-1.69-.65-2.49-1a8.37,8.37,0,0,1-2.11-1.38,5.94,5.94,0,0,1-2-4.72,6.47,6.47,0,0,1,2.32-5.28,9.73,9.73,0,0,1,6.34-1.91,14.8,14.8,0,0,1,4.13.52,12.78,12.78,0,0,1,2.85,1.12l-1.4,3.65a10.83,10.83,0,0,0-2.67-1,12.79,12.79,0,0,0-3-.35,4.73,4.73,0,0,0-2.85.75,2.46,2.46,0,0,0-1,2.11,2.73,2.73,0,0,0,.34,1.41,3.46,3.46,0,0,0,1,1.06,8,8,0,0,0,1.46.86c.56.26,1.18.51,1.85.75a33.32,33.32,0,0,1,3.13,1.31A8.67,8.67,0,0,1,409,313a6,6,0,0,1,1.45,2.15,7.82,7.82,0,0,1,.51,3,6.19,6.19,0,0,1-2.39,5.2q-2.37,1.85-7,1.84a18.54,18.54,0,0,1-2.81-.19,18.09,18.09,0,0,1-2.26-.48,16.35,16.35,0,0,1-1.7-.6,8.81,8.81,0,0,1-1.14-.55l1.32-3.69a15.3,15.3,0,0,0,2.61,1.08A12.87,12.87,0,0,0,401.59,321.27Z" transform="translate(-165.84 -202.87)"/><path class="cls-4" d="M432.24,324.64c-.33-1-.68-1.95-1-2.9s-.7-1.93-1-2.93H419.69c-.34,1-.68,2-1,2.95s-.69,1.92-1,2.88H413c.93-2.65,1.81-5.09,2.64-7.34s1.65-4.36,2.45-6.37,1.59-3.91,2.38-5.72,1.6-3.6,2.43-5.37h4.3c.84,1.77,1.65,3.55,2.44,5.37s1.58,3.72,2.38,5.72,1.62,4.13,2.47,6.37,1.73,4.69,2.66,7.34Zm-7.31-20q-.82,1.9-1.88,4.62t-2.2,5.91H429q-1.15-3.2-2.22-5.94T424.93,304.63Z" transform="translate(-165.84 -202.87)"/><path class="cls-4" d="M441.08,324.64v-24.8h15.67v3.83H445.58V310h9.92v3.83h-9.92v10.81Z" transform="translate(-165.84 -202.87)"/><path class="cls-4" d="M462.15,324.64v-24.8h15.93v3.83H466.66v6.12h10.16v3.76H466.66v7.26h12.28v3.83Z" transform="translate(-165.84 -202.87)"/><path class="cls-4" d="M501.4,299.84v3.9h-7.62v20.9h-4.54v-20.9h-7.63v-3.9Z" transform="translate(-165.84 -202.87)"/><path class="cls-4" d="M515.25,310.83c1.07-1.79,2.12-3.61,3.15-5.44s2-3.69,2.79-5.55h5q-2,3.8-4.17,7.53t-4.63,7.54v9.73h-4.51V315c-1.65-2.56-3.2-5.08-4.66-7.59s-2.85-5-4.18-7.55h5.29q1.26,2.79,2.76,5.55C513.1,307.22,514.15,309,515.25,310.83Z" transform="translate(-165.84 -202.87)"/><path class="cls-4" d="M330.77,254.14h8.66v38.48h-8.66V276.29H316.22v16.33h-8.66V254.14h8.66v14.71h14.55Z" transform="translate(-165.84 -202.87)"/><path class="cls-4" d="M385.46,273.35A23.69,23.69,0,0,1,384,282a17.81,17.81,0,0,1-4,6.27,16.51,16.51,0,0,1-6.08,3.81,22.13,22.13,0,0,1-7.58,1.27,21.54,21.54,0,0,1-7.44-1.27,17.05,17.05,0,0,1-6.11-3.81,17.72,17.72,0,0,1-4.11-6.27,23.26,23.26,0,0,1-1.5-8.69,22.5,22.5,0,0,1,1.56-8.69,18.49,18.49,0,0,1,4.19-6.3,17.22,17.22,0,0,1,6.11-3.83,21,21,0,0,1,7.3-1.28,21.54,21.54,0,0,1,7.44,1.28,17,17,0,0,1,6.11,3.83,18,18,0,0,1,4.1,6.3A23.3,23.3,0,0,1,385.46,273.35Zm-29.37,0a17.25,17.25,0,0,0,.7,5.11,11.56,11.56,0,0,0,2,3.91A8.73,8.73,0,0,0,362,284.9a10.91,10.91,0,0,0,8.63,0,8.67,8.67,0,0,0,3.22-2.53,11.56,11.56,0,0,0,2-3.91,17.6,17.6,0,0,0,.69-5.11,17.79,17.79,0,0,0-.69-5.13,11.67,11.67,0,0,0-2-4,8.74,8.74,0,0,0-3.22-2.52,10.14,10.14,0,0,0-4.3-.89,9.81,9.81,0,0,0-4.33.92,9.11,9.11,0,0,0-3.19,2.55,11.62,11.62,0,0,0-2,3.94A17.33,17.33,0,0,0,356.09,273.35Z" transform="translate(-165.84 -202.87)"/><path class="cls-4" d="M393.32,292.62V254.14h26v7.27H402V269h15.38v7.1H402v9.27h18.6v7.28Z" transform="translate(-165.84 -202.87)"/><path class="cls-4" d="M429.22,292.62V254.14H455v7.27h-17.1v8.06h15.21v7.27H437.88v15.88Z" transform="translate(-165.84 -202.87)"/><path class="cls-4" d="M489.16,292.62q-3.72-6.62-8.05-13.05a132.83,132.83,0,0,0-9.22-12.16v25.21h-8.55V254.14h7.06q1.83,1.83,4.05,4.5c1.48,1.78,3,3.67,4.52,5.69s3.07,4.11,4.58,6.27,2.95,4.25,4.28,6.25V254.14h8.6v38.48Z" transform="translate(-165.84 -202.87)"/><path class="cls-4" d="M531.51,292.62c-.43-1.34-.89-2.71-1.38-4.12s-1-2.81-1.48-4.21h-15c-.49,1.4-1,2.81-1.46,4.22s-.95,2.78-1.37,4.11h-9q2.18-6.22,4.12-11.5t3.81-9.93q1.88-4.67,3.68-8.86t3.76-8.19h8.21q1.89,4,3.74,8.19t3.71,8.86q1.86,4.67,3.82,9.93t4.12,11.5ZM521.1,262.86c-.19.56-.47,1.32-.85,2.28s-.79,2.07-1.27,3.33-1,2.65-1.59,4.17-1.19,3.1-1.79,4.76h11c-.59-1.66-1.16-3.26-1.71-4.78s-1.08-2.91-1.57-4.17-.94-2.37-1.31-3.33S521.33,263.4,521.1,262.86Z" transform="translate(-165.84 -202.87)"/><path class="cls-4" d="M563.42,260.8q-6.06,0-8.75,3.36c-1.79,2.24-2.69,5.31-2.69,9.19a18.28,18.28,0,0,0,.67,5.14,11.4,11.4,0,0,0,2,4A9,9,0,0,0,558,285a11.07,11.07,0,0,0,4.66.91c1,0,1.78,0,2.47-.05a12.13,12.13,0,0,0,1.8-.22V272.3h8.67v19a32.43,32.43,0,0,1-5,1.3,43.34,43.34,0,0,1-8.5.7,22.25,22.25,0,0,1-7.85-1.33,16.55,16.55,0,0,1-6-3.89,17.28,17.28,0,0,1-3.85-6.27,24.57,24.57,0,0,1-1.36-8.5,22.93,22.93,0,0,1,1.49-8.55,18.41,18.41,0,0,1,4.11-6.3,17.38,17.38,0,0,1,6.14-3.91,21.07,21.07,0,0,1,7.52-1.34,30.47,30.47,0,0,1,4.91.36,31.63,31.63,0,0,1,3.78.84,17.81,17.81,0,0,1,2.61,1,16.41,16.41,0,0,1,1.47.78l-2.5,6.94a22.08,22.08,0,0,0-4.08-1.64A17.45,17.45,0,0,0,563.42,260.8Z" transform="translate(-165.84 -202.87)"/><path class="cls-4" d="M585.11,292.62V254.14h26v7.27H593.77V269h15.38v7.1H593.77v9.27h18.6v7.28Z" transform="translate(-165.84 -202.87)"/><path class="cls-4" d="M645.38,285.18v7.44H620.75V254.14h8.66v31Z" transform="translate(-165.84 -202.87)"/><path class="cls-4" d="M660.9,286a12.08,12.08,0,0,0,3-.31,5.52,5.52,0,0,0,1.92-.83,2.83,2.83,0,0,0,1-1.25,4.57,4.57,0,0,0,.27-1.61,3.71,3.71,0,0,0-1.77-3.13,25.44,25.44,0,0,0-6.11-2.7c-1.26-.44-2.52-.95-3.77-1.52a14.12,14.12,0,0,1-3.39-2.17,10.33,10.33,0,0,1-2.44-3.16,9.91,9.91,0,0,1-1-4.53,11.32,11.32,0,0,1,1-4.8,10.28,10.28,0,0,1,2.83-3.64,13,13,0,0,1,4.44-2.3,19.83,19.83,0,0,1,5.89-.81,23.8,23.8,0,0,1,6.72.84,23.32,23.32,0,0,1,4.66,1.83l-2.5,6.83a22.26,22.26,0,0,0-3.58-1.47,15.38,15.38,0,0,0-4.75-.64,8.6,8.6,0,0,0-4.46.86,2.89,2.89,0,0,0-1.36,2.64,3,3,0,0,0,.49,1.77,5,5,0,0,0,1.42,1.31,11.86,11.86,0,0,0,2.11,1c.8.32,1.67.64,2.64,1a56.45,56.45,0,0,1,5.22,2.2,13.92,13.92,0,0,1,3.69,2.52,9.18,9.18,0,0,1,2.19,3.39,13.66,13.66,0,0,1,.72,4.72,10,10,0,0,1-3.77,8.35q-3.78,3-11.38,3a32,32,0,0,1-4.61-.3,30.48,30.48,0,0,1-3.64-.75,20.67,20.67,0,0,1-2.72-.95,18,18,0,0,1-1.91-.94l2.44-6.88a21.71,21.71,0,0,0,4.25,1.69A22,22,0,0,0,660.9,286Z" transform="translate(-165.84 -202.87)"/></svg>